<?xml version="1.0" standalone="no"?>
<!DOCTYPE svg PUBLIC "-//W3C//DTD SVG 20010904//EN"
 "http://www.w3.org/TR/2001/REC-SVG-20010904/DTD/svg10.dtd">
<svg version="1.0" xmlns="http://www.w3.org/2000/svg"
 width="888.000000pt" height="622.000000pt" viewBox="0 0 888.000000 622.000000"
 preserveAspectRatio="xMidYMid meet">
<metadata>
Created by potrace 1.16, written by Peter Selinger 2001-2019
</metadata>
<g transform="translate(0.000000,622.000000) scale(0.100000,-0.100000)"
fill="#000000" stroke="none">
<path d="M3415 6209 c-760 -14 -1652 -60 -2025 -104 -193 -23 -367 -54 -460
-82 -100 -30 -243 -99 -307 -148 -25 -19 -50 -35 -54 -35 -5 0 -9 -6 -9 -14 0
-8 -8 -17 -18 -20 -34 -11 -202 -196 -202 -223 0 -7 -5 -13 -10 -13 -6 0 -14
-8 -17 -17 -4 -10 -22 -45 -41 -78 -35 -61 -118 -292 -109 -302 3 -3 -1 -23
-9 -45 -8 -23 -12 -43 -10 -45 2 -3 -2 -26 -9 -51 -7 -26 -18 -91 -24 -145 -6
-54 -16 -117 -21 -140 -12 -52 -22 -166 -57 -642 -25 -342 -27 -414 -27 -960
0 -335 5 -679 12 -795 46 -791 109 -1251 206 -1500 18 -47 78 -160 119 -224
31 -50 136 -166 193 -216 31 -27 151 -110 158 -110 3 0 27 -13 53 -28 43 -24
117 -52 263 -97 25 -7 72 -17 105 -21 33 -4 69 -8 80 -10 177 -27 430 -53 525
-55 36 -1 97 -5 135 -9 65 -8 175 -15 670 -40 105 -5 323 -12 485 -16 162 -3
430 -9 595 -13 596 -14 2057 -1 2655 25 80 3 185 8 234 9 49 2 157 8 240 14
83 6 205 13 271 16 66 3 165 10 220 16 55 5 143 14 195 19 135 13 330 39 365
50 17 4 48 11 70 15 62 9 225 66 278 97 26 15 51 28 55 28 4 0 19 11 33 24 14
13 34 26 45 30 36 11 191 158 224 211 12 19 26 35 31 35 5 0 9 5 9 11 0 6 11
25 24 42 68 91 137 269 175 455 25 117 87 555 90 632 1 19 6 85 12 145 46 515
61 1330 35 1885 -16 335 -46 737 -66 890 -31 237 -41 302 -54 365 -8 39 -22
108 -32 155 -43 210 -145 403 -298 559 -85 87 -96 96 -201 161 -80 50 -119 68
-265 126 -19 7 -57 16 -85 19 -27 4 -61 10 -75 15 -14 4 -65 13 -115 20 -49 6
-112 16 -140 21 -65 12 -328 33 -800 64 -38 2 -135 7 -215 10 -80 3 -235 10
-345 16 -521 25 -1887 35 -2760 18z m155 -1451 c82 -20 178 -75 232 -133 53
-57 60 -67 88 -124 38 -77 51 -129 51 -211 1 -103 -10 -155 -46 -228 -42 -85
-163 -212 -202 -212 -7 0 -13 -4 -13 -9 0 -17 -136 -54 -217 -59 -106 -6 -201
17 -290 70 -57 34 -153 117 -153 133 0 2 -11 21 -25 41 -41 60 -67 158 -67
254 -1 138 42 240 142 341 133 135 310 183 500 137z m2113 -22 c228 -48 397
-254 397 -485 0 -142 -44 -245 -150 -351 -99 -99 -189 -139 -335 -147 -86 -5
-109 -2 -165 17 -145 48 -245 131 -319 262 -47 83 -61 207 -37 321 28 128 107
240 221 312 124 78 247 100 388 71z m646 -2133 c10 -39 46 -203 77 -350 9 -45
14 -88 11 -96 -3 -8 -23 -18 -44 -21 -32 -6 -240 -49 -413 -85 -25 -5 -84 -17
-132 -27 -49 -10 -88 -22 -88 -27 0 -4 -4 -6 -9 -3 -5 4 -108 -15 -228 -40
-120 -25 -283 -59 -363 -75 -185 -37 -202 -41 -400 -84 -91 -20 -235 -49 -320
-66 -85 -16 -177 -36 -205 -44 -27 -8 -112 -26 -189 -40 -76 -15 -149 -31
-162 -35 -13 -5 -45 -12 -71 -15 -46 -6 -191 -36 -263 -55 -19 -5 -107 -23
-195 -40 -88 -17 -196 -40 -240 -50 -44 -10 -101 -21 -127 -25 -46 -6 -48 -5
-54 22 -3 15 -8 35 -11 43 -2 8 -9 38 -14 65 -5 28 -18 93 -29 145 -46 217
-46 220 -13 220 9 0 113 21 232 46 119 25 322 67 451 94 225 46 475 99 735
155 66 14 131 27 145 29 14 2 57 11 95 20 39 8 113 25 165 35 52 11 160 34
240 51 80 17 190 40 245 51 55 12 150 32 210 45 61 13 180 38 265 55 85 17
184 38 220 46 36 8 76 17 90 19 14 2 95 19 180 38 202 45 197 45 209 -1z"/>
</g>
</svg>
